<?xml version="1.0" encoding="UTF-8" standalone="no"?>
<!-- Created with Inkscape (http://www.inkscape.org/) -->

<svg
   width="61.991051mm"
   height="9.9983501mm"
   viewBox="0 0 61.991051 9.9983501"
   version="1.1"
   id="svg1"
   xml:space="preserve"
   xmlns="http://www.w3.org/2000/svg"
   xmlns:svg="http://www.w3.org/2000/svg"
   xmlns:rdf="http://www.w3.org/1999/02/22-rdf-syntax-ns#"
   xmlns:cc="http://creativecommons.org/ns#"
   xmlns:dc="http://purl.org/dc/elements/1.1/"><title
     id="title649">Audionerdz Logo</title><defs
     id="defs1" /><g
     id="layer1"
     transform="translate(-43.999898,-135.00158)"><g
       id="g1"><path
         style="fill:#000000;fill-opacity:1"
         d="m 100.99125,138.00088 v 0.99994 h 2.99982 v 0.99994 h -0.99994 v 0.99994 h -0.99994 v 0.99993 h -0.99994 v 0.99943 h -0.999421 v 1.99987 h 5.999121 V 144 h -0.99994 -0.99994 -0.99994 -0.99994 v -0.99994 h 0.99994 v -0.99943 h 0.99994 v -0.99993 h 0.99994 v -0.99994 h 0.99994 v -1.99988 z"
         id="path649" /><path
         style="fill:#000000;fill-opacity:1"
         d="m 89.992957,138.00088 v 6.99905 h 1.999877 v -4.99917 h 0.999939 v -0.99994 h 0.999939 v -0.99994 z"
         id="path648" /><path
         id="path647"
         style="fill:#000000;fill-opacity:1"
         d="m 83.99384,138.00088 v 1.99988 h -0.999939 v 2.9993 h 0.999939 v 1.99987 h 3.999755 V 144 h 0.999423 v -0.99994 H 86.993656 V 144 h -1.999878 v -2.9993 h 3.99924 v -1.99988 h -0.999423 v -0.99994 z m 0.999938,0.99994 h 1.999878 v 0.99994 h -1.999878 z" /><path
         id="path645"
         style="fill:#000000;fill-opacity:1"
         d="m 67.996366,138.00088 v 1.99988 h -0.999939 v 2.9993 h 0.999939 v 1.99987 h 0.999939 1.999362 0.999938 v -1.99987 h 0.999939 v -3.99924 h -0.999939 v -0.99994 z m 0.999939,0.99994 h 1.999362 V 143.00006 144 h -1.999362 v -0.99994 z" /><path
         style="fill:#000000;fill-opacity:1"
         d="m 64.996549,138.00088 v 6.99905 h 1.999878 V 144 h -0.999939 v -4.99918 h 0.999939 v -0.99994 z"
         id="path643" /><path
         style="fill:#000000;fill-opacity:1"
         d="m 51.998893,138.00088 v 3.99975 h 0.999422 V 144 144.99993 H 57.99801 V 144 h -0.999939 v -4.99918 h 0.999939 v -0.99994 H 55.998132 V 139.00082 144 h -1.999878 v -1.99937 -3.99975 z"
         id="path642" /><path
         id="path641"
         style="fill:#000000;fill-opacity:1"
         d="m 97.991951,135.00158 v 2.9993 h -2.999816 v 1.99988 H 93.992712 V 144 h 0.999423 v 0.99993 h 3.999755 v -2.9993 h 0.999939 v -6.99905 z m -1.999877,3.99924 h 1.999877 V 144 h -1.999877 v -3.99924 z" /><path
         style="fill:#000000;fill-opacity:1"
         d="m 72.995544,135.00158 v 2.9993 h 0.999939 V 144 h -0.999939 v 0.99993 h 2.999817 v -3.99923 h 0.999423 v 0.99993 h 1.999877 V 144 h 1.999878 v 0.99993 h 1.999362 V 144 h -0.999423 v -4.99918 h 0.999423 v -3.99924 h -1.999362 v 3.99924 0.99994 h -1.999878 v -1.99988 h -1.999877 v -0.99942 h -0.999423 v -0.99994 h -0.999939 v -0.99994 z"
         id="path639" /><path
         style="fill:#000000;fill-opacity:1"
         d="m 64.996549,135.00158 v 1.99988 h 1.999878 v -1.99988 z"
         id="path638" /><path
         id="path637"
         style="fill:#000000;fill-opacity:1"
         d="m 61.997249,135.00158 v 2.9993 h -1.999878 -0.999939 v 1.99988 H 57.99801 v 2.9993 h 0.999422 v 1.99987 h 0.999939 1.999878 1.999878 v -9.99835 z m -1.999878,3.99924 h 1.999878 V 144 h -1.999878 z" /><path
         id="path635"
         style="fill:#000000;fill-opacity:1"
         d="m 46.999198,135.00158 v 1.99988 h -0.999422 v 1.99936 0.99994 h -0.999939 v 2.9993 h -0.999939 v 1.99987 h 1.999878 v -1.99987 h 3.999239 v 1.99987 h 1.999878 v -1.99987 h -0.999939 v -2.9993 h -0.999939 v -0.99994 -1.99936 h -0.999939 v -1.99988 z m 0,3.99924 h 1.999878 v 2.99981 h -1.999878 z" /></g></g><metadata
     id="metadata649"><rdf:RDF><cc:Work
         rdf:about=""><dc:title>Audionerdz Logo</dc:title></cc:Work></rdf:RDF></metadata></svg>
