<?xml version="1.0" encoding="UTF-8" standalone="no"?>
<!-- Created with Inkscape (http://www.inkscape.org/) -->

<svg
   width="76.464584mm"
   height="14.2875mm"
   viewBox="0 0 76.464584 14.2875"
   version="1.1"
   id="svg1"
   xml:space="preserve"
   xmlns:xlink="http://www.w3.org/1999/xlink"
   xmlns="http://www.w3.org/2000/svg"
   xmlns:svg="http://www.w3.org/2000/svg"
   xmlns:rdf="http://www.w3.org/1999/02/22-rdf-syntax-ns#"
   xmlns:cc="http://creativecommons.org/ns#"
   xmlns:dc="http://purl.org/dc/elements/1.1/"><title
     id="title1">Delay Lama Logo</title><defs
     id="defs1" /><g
     id="layer1"
     style="display:inline"
     transform="translate(-66.767708,-141.35625)"><path
       style="display:inline;fill:#ffffff;fill-opacity:1;stroke:none;stroke-width:1;stroke-dasharray:none;stroke-opacity:1"
       xlink:href="#path1"
       id="path2"
       d="m 70.943359,142.03125 c -0.374509,0.0124 -0.639967,0.0504 -0.865234,0.13086 -0.225267,0.0805 -0.426794,0.26694 -0.503906,0.45703 -0.07711,0.19009 -0.0744,0.3326 -0.0918,0.45508 -0.01968,0.13857 -0.03572,0.26218 -0.01953,0.4082 0.01619,0.14602 0.09153,0.33433 0.232421,0.45117 0.281776,0.23369 0.556357,0.20236 0.945313,0.19922 0.245485,-0.002 0.557556,-7.9e-4 0.808594,0.0469 0.251037,0.0477 0.388166,0.13199 0.429687,0.21093 a 0.40855124,0.40855124 0 0 0 0,0.002 l 0.179688,0.34179 -0.994141,0.008 c -0.507735,0.003 -0.922248,0.0522 -1.222656,0.11133 -0.150204,0.0296 -0.270517,0.0605 -0.369141,0.0937 -0.04931,0.0166 -0.0933,0.033 -0.140625,0.0566 -0.04733,0.0236 -0.105868,-0.0156 -0.21875,0.20898 -0.08697,0.17302 -0.114818,0.37228 -0.109375,0.64844 1.6e-5,8.1e-4 -1.6e-5,0.001 0,0.002 -6.91e-4,0.11274 -0.02363,0.28998 0.0332,0.51563 0.02885,0.11452 0.08837,0.26916 0.248047,0.3789 0.0621,0.0427 0.133722,0.0131 0.205078,0.0273 -0.05262,0.24075 -0.18781,0.65061 -0.335937,1.16015 -0.214215,0.73687 -0.306947,1.27767 -0.333985,1.66016 -0.01352,0.19124 -0.01198,0.34094 0.0059,0.4707 0.0089,0.0649 0.01962,0.12348 0.04687,0.19336 0.02726,0.0699 0.05373,0.18162 0.246094,0.26758 0.175414,0.0783 0.25149,0.0619 0.376953,0.0684 0.125462,0.006 0.271082,0.007 0.4375,0.008 0.332835,0.002 0.744702,0.004 1.166015,0.0312 0.817728,0.0521 1.196103,0.13039 1.476563,0.28711 0.272884,0.15249 0.536665,0.44532 1.007812,0.96094 0.0019,0.002 0.002,0.002 0.0039,0.004 0.01647,0.0236 0.03074,0.0417 0.04492,0.0586 0.03047,0.0363 0.06273,0.0726 0.101563,0.11328 0.07767,0.0814 0.177459,0.17924 0.283203,0.28125 0.211487,0.20402 0.435684,0.41285 0.578125,0.52734 0.10678,0.0863 0.160956,0.0879 0.216797,0.10157 0.05584,0.0137 0.108172,0.0204 0.162109,0.0234 0.05394,0.003 0.107363,0.003 0.173828,-0.008 0.06315,-0.0102 0.148033,-0.024 0.257813,-0.11719 0.197236,-0.16479 0.170817,-0.25341 0.195312,-0.35351 0.02503,-0.10227 0.04249,-0.21462 0.05859,-0.34571 0.03221,-0.26217 0.05624,-0.59462 0.07422,-0.96679 0.03595,-0.74434 0.04844,-1.64119 0.04687,-2.35938 l -0.0059,-3.24414 c 0.0035,-0.21366 -0.05567,-0.43134 -0.205079,-0.59375 C 75.4209,144.85126 75.198244,144.77656 75,144.78125 l -0.722656,-0.008 c -0.230734,-0.002 -0.457898,0.008 -0.621094,0.006 -0.03578,-4.5e-4 -0.04829,-0.004 -0.07617,-0.006 -0.0099,-0.0247 0.0057,0.005 -0.002,-0.0312 -0.02352,-0.1116 -0.05155,-0.27009 -0.08789,-0.43946 l -0.0059,-0.0332 c -0.01054,-0.0722 -0.02316,-0.10846 -0.03516,-0.16797 0.137394,-0.0114 0.277978,-0.0234 0.429687,-0.0273 0.310057,-0.008 0.536093,0.063 0.865235,-0.0527 0.164571,-0.0579 0.33806,-0.21667 0.412109,-0.39062 0.07405,-0.17395 0.08712,-0.3454 0.08789,-0.55274 7.86e-4,-0.2072 0.01002,-0.40068 -0.121094,-0.61718 -0.131115,-0.2165 -0.385534,-0.31525 -0.597656,-0.34571 -0.424246,-0.0609 -0.979997,-0.0136 -2.066407,-0.0566 -0.658331,-0.0261 -1.141115,-0.0398 -1.515625,-0.0273 z m 40.404301,0.10742 c -0.63541,0.004 -1.04695,0.0125 -1.38868,0.0977 -0.34172,0.0852 -0.63339,0.33631 -0.75195,0.62109 -0.13722,0.32964 -0.0903,0.63806 -0.0859,0.7168 0.0102,0.17377 0.12313,0.34661 0.23633,0.43164 0.11321,0.085 0.22037,0.11742 0.32422,0.14453 0.2077,0.0542 0.41986,0.0708 0.63672,0.0937 0.11928,0.0127 0.18121,0.0165 0.17773,0.0156 -0.003,-9.1e-4 -0.0377,-0.0315 -0.006,0.008 0.0515,0.0635 0.0731,0.15053 0.0723,0.0937 0.002,0.11538 -4.3e-4,0.20112 -0.002,0.29101 -0.0139,2e-5 -0.021,0 -0.0352,0 -0.24332,0 -0.52763,0.0313 -0.79883,0.18555 -0.2712,0.15424 -0.50586,0.49113 -0.50586,0.88477 0,0.23809 0.0436,0.45665 0.14063,0.65039 0.0969,0.1933 0.28209,0.41744 0.59375,0.42187 0.14705,0.002 0.38119,0.0149 0.57617,0.0332 0.046,0.004 0.0769,0.009 0.11719,0.0137 0.007,0.0527 0.0148,0.0925 0.0234,0.15625 0.0328,0.24206 0.0703,0.53219 0.14062,0.77734 0.0525,0.1829 0.0865,0.42663 0.0977,0.61328 2e-4,0.003 -1.9e-4,0.004 0,0.008 -0.14214,0.0146 -0.31096,0.0336 -0.51563,0.10938 -0.73593,0.27239 -1.2318,0.74756 -1.46094,1.30664 -0.22913,0.55908 -0.19443,1.1738 0.0137,1.72461 0.34846,0.92232 1.32885,1.60547 2.42382,1.60547 0.49049,-1e-5 0.92532,-0.26211 1.32618,-0.56641 0.20042,-0.15215 0.38162,-0.32081 0.52734,-0.50195 0.11092,-0.13788 0.17038,-0.31013 0.2168,-0.49219 0.004,-0.002 -0.0174,0.009 0.01,0 0.0849,-0.0288 0.38965,-0.058 0.78906,-0.0293 0.39942,0.0287 0.90575,0.10037 1.47852,0.20313 -0.0324,-0.006 0.17745,0.0544 0.39063,0.14062 0.21317,0.0863 0.47669,0.20226 0.72656,0.32618 0.24987,0.12391 0.48945,0.25733 0.64648,0.36718 0.0785,0.0549 0.13526,0.10606 0.15625,0.12891 0.021,0.0229 -0.0234,0.0126 -0.0234,-0.11719 a 0.40855124,0.40855124 0 0 0 0.0898,0.25586 c 0.25022,0.31277 0.4533,0.52586 0.64648,0.66992 0.0966,0.072 0.18552,0.13386 0.33008,0.16602 0.0723,0.0161 0.16609,0.022 0.27149,-0.0117 0.10539,-0.0338 0.20815,-0.11735 0.26171,-0.20508 0.10714,-0.17546 0.086,-0.30851 0.0684,-0.42187 -0.0176,-0.11336 -0.0536,-0.22058 -0.10156,-0.33985 -0.0224,-0.0558 -0.0805,-0.13856 -0.10937,-0.19922 0.17156,-0.035 0.30096,-0.13812 0.33984,-0.20507 0.0453,-0.078 0.0615,-0.13694 0.0781,-0.19727 0.0333,-0.12065 0.0539,-0.24726 0.0762,-0.39453 0.0446,-0.29455 0.0901,-0.65597 0.15625,-0.97266 0.0688,-0.32977 0.21702,-0.60825 0.30859,-0.79882 l 1.03125,0.13476 c 0.35458,0.0466 0.70342,0.11577 0.96875,0.18359 0.13267,0.0339 0.24592,0.0678 0.32031,0.0957 0.0744,0.028 0.12058,0.0786 0.0508,0.01 -0.0636,-0.0628 -0.0195,-0.0266 0.006,0.0391 0.0254,0.0657 0.0557,0.16782 0.0859,0.28711 0.0605,0.23856 0.11876,0.55174 0.1543,0.86718 0.0589,0.52212 0.11418,0.86623 0.20117,1.11719 0.0217,0.0627 0.0438,0.1208 0.0859,0.1875 0.0421,0.0667 0.10631,0.16611 0.27539,0.2168 0.16907,0.0507 0.37257,-0.039 0.45117,-0.11719 0.0786,-0.0782 0.10472,-0.1422 0.13086,-0.20313 0.10455,-0.24371 0.14472,-0.5298 0.19531,-0.98046 0.0506,-0.45067 0.0927,-1.04007 0.125,-1.76563 0.0461,-1.03666 0.0456,-1.82472 0.041,-2.36328 -0.002,-0.2291 -0.003,-0.38846 -0.004,-0.52344 0.0137,-0.001 0.0211,-0.003 0.0352,-0.004 0.0948,-0.007 0.19466,-0.0148 0.28906,-0.0273 0.0472,-0.006 0.0923,-0.012 0.14844,-0.0273 0.0561,-0.0154 0.13771,0.009 0.27343,-0.1836 0.0857,-0.12179 0.11459,-0.23481 0.13086,-0.29492 0.0558,-0.0374 0.12335,-0.0832 0.20899,-0.18359 0.028,0.15531 0.0898,0.30449 0.1914,0.43164 0.1904,0.23816 0.50487,0.35987 0.84961,0.37305 5.7e-4,0.0162 0.001,0.0261 0.002,0.043 0.006,0.18843 0.008,0.41137 0.008,0.56054 -0.008,0.60736 -0.17091,0.73662 -0.4707,0.92383 -0.12401,0.0774 -0.19659,0.14311 -0.23243,0.16797 -0.0358,0.0249 -0.0411,0.0316 -0.12695,0.0508 a 0.40855124,0.40855124 0 0 0 -0.002,0 c -0.12855,0.0286 -0.23394,0.12212 -0.28516,0.19922 -0.0512,0.0771 -0.0686,0.14028 -0.0801,0.19336 -0.023,0.10615 -0.0204,0.1848 -0.0176,0.25976 0.006,0.14993 0.0234,0.33597 0.0234,0.27149 0,0.19933 0.0195,0.37549 0.11914,0.54883 0.0997,0.17334 0.3379,0.3126 0.53711,0.30859 0.39843,-0.008 0.60587,-0.24347 0.8418,-0.50586 0.47186,-0.52478 0.9318,-1.36382 1.07227,-2.24219 0.0332,-0.20782 0.0483,-0.4448 0.0625,-0.64453 0.003,-0.0469 0.007,-0.0782 0.01,-0.11914 0.0831,0.002 0.1694,0.006 0.25977,0.006 0.0898,0 0.13445,-8.6e-4 0.1914,-0.002 0.21363,0.6999 0.34044,1.68856 0.40235,2.85156 0.0258,0.48447 0.0722,0.87565 0.14843,1.18359 0.0381,0.15398 0.0823,0.28844 0.15235,0.41407 0.0701,0.12563 0.17659,0.26738 0.3789,0.32812 0.20227,0.0607 0.46249,-0.0603 0.56055,-0.18164 0.0981,-0.12136 0.13294,-0.23285 0.16602,-0.34961 0.0662,-0.23352 0.0946,-0.49992 0.11328,-0.7832 0.0374,-0.56656 0.0227,-1.16933 0.008,-1.4082 -0.0373,-0.5971 -0.11867,-1.22629 -0.17383,-1.69922 -0.0175,-0.1502 -0.0251,-0.24383 -0.0352,-0.35352 h 0.48046 c 0.26063,0 0.52235,-0.0162 0.70313,-0.0156 9.9e-4,0 9.7e-4,-1e-5 0.002,0 0.006,0.0484 0.006,0.0348 0.0117,0.0937 0.0173,0.19137 0.037,0.45113 0.0586,0.75976 0.0432,0.61726 0.0937,1.42956 0.1582,2.30469 0.0459,0.62224 0.0994,1.22622 0.14844,1.69922 0.0245,0.2365 0.0488,0.43935 0.0703,0.59961 0.0215,0.16026 0.0283,0.24969 0.0664,0.37304 0.007,0.0231 0.0187,0.0881 0.043,0.17774 0.0121,0.0448 0.0271,0.0973 0.0645,0.16601 0.0373,0.0688 0.10872,0.16766 0.24218,0.22461 0.32961,0.14045 0.63963,0.0752 0.83399,-0.11914 0.15075,-0.1503 0.10781,-0.17256 0.12109,-0.21679 0.0133,-0.0442 0.0237,-0.0853 0.0332,-0.13282 0.0189,-0.095 0.0367,-0.21105 0.0527,-0.3457 0.0321,-0.2693 0.0566,-0.61136 0.0566,-0.95898 0,-0.0435 0.009,-0.17084 0.01,-0.22071 0.006,0.11848 -0.007,0.25572 0.0137,0.36133 0.0242,0.12245 0.0558,0.23732 0.13476,0.35938 0.0789,0.12205 0.25908,0.26562 0.46485,0.26562 0.17715,0 0.28634,-0.0923 0.3457,-0.1543 0.0594,-0.062 0.0919,-0.11487 0.12109,-0.16992 0.0585,-0.1101 0.0995,-0.22734 0.14258,-0.36523 0.0861,-0.27578 0.16703,-0.62882 0.23828,-1.01563 0.0392,-0.21278 0.10796,-0.54486 0.18164,-0.80273 0.0211,-0.074 0.0389,-0.11334 0.0586,-0.16797 l 1.08398,0.14453 c 0.4878,0.0674 0.97473,0.14483 1.44141,0.22852 0.0138,0.0885 0.0224,0.12376 0.0332,0.27343 0.0186,0.25881 0.0358,0.57512 0.0781,0.88282 0.0802,0.58346 0.15354,0.96199 0.25976,1.23242 0.0266,0.0676 0.0535,0.13085 0.10156,0.19922 0.048,0.0684 0.1222,0.1644 0.28907,0.20703 0.16686,0.0426 0.36112,-0.0446 0.4414,-0.125 0.0803,-0.0804 0.1094,-0.14909 0.13672,-0.21485 0.10929,-0.26302 0.14493,-0.57731 0.1836,-1.0625 0.0387,-0.48518 0.0605,-1.11478 0.0605,-1.88085 v -2.66602 h 0.37696 c 0.26664,0 0.66541,-0.0342 0.69531,-0.0352 a 0.40855124,0.40855124 0 0 0 0.002,0 c 0.1363,-0.005 0.25894,-0.0387 0.375,-0.0977 0.11607,-0.059 0.23622,-0.14015 0.31836,-0.30664 a 0.40855124,0.40855124 0 0 0 0,-0.002 c 0.0876,-0.17772 0.0741,-0.29924 0.0723,-0.40039 -6.7e-4,-0.0366 -0.002,-0.036 -0.004,-0.0664 0.0611,-0.053 0.13057,-0.10704 0.17188,-0.20313 0.0559,-0.13013 0.0649,-0.26703 0.0527,-0.41015 -0.0145,-0.17055 -0.12729,-0.28245 -0.19531,-0.32813 -0.068,-0.0457 -0.11662,-0.0596 -0.16016,-0.0723 -0.0871,-0.0254 -0.15999,-0.0345 -0.24805,-0.043 -0.17611,-0.017 -0.398,-0.0214 -0.67187,-0.0234 -0.54773,-0.004 -1.29329,0.01 -2.12891,0.0137 -1.15716,0.006 -1.9419,0.005 -2.48828,0.0606 -0.27319,0.0275 -0.48745,0.0636 -0.6875,0.15625 -0.20005,0.0927 -0.39714,0.3041 -0.43555,0.53906 a 0.40855124,0.40855124 0 0 0 -0.006,0.0488 c -0.003,0.0806 -0.0258,0.20733 -0.0352,0.36133 -0.009,0.15399 -0.0148,0.38499 0.16992,0.58789 a 0.40855124,0.40855124 0 0 0 0.002,0.002 c 0.11521,0.12526 0.16011,0.1115 0.19922,0.125 0.0368,0.0127 0.065,0.0188 0.0937,0.0254 -0.0349,0.10426 -0.0672,0.20015 -0.125,0.34961 -0.16898,0.43716 -0.42553,1.04305 -0.73047,1.75195 -0.22772,0.52941 -0.33569,1.1667 -0.39257,1.74219 0.0255,-0.86799 0.0595,-1.8861 0.13086,-2.89062 l 0.17187,-2.42188 a 0.40855124,0.40855124 0 0 0 -0.4082,-0.4375 h -3.58399 c -1.54884,0 -2.46505,-0.0184 -3.05664,0.0332 -0.29579,0.0258 -0.51911,0.0586 -0.73047,0.18164 -0.14265,0.0831 -0.18723,0.25154 -0.25,0.40235 -0.001,-0.008 0.005,-0.0157 0.004,-0.0234 -0.0552,-0.27429 -0.30329,-0.43224 -0.49609,-0.49414 -0.1928,-0.0619 -0.39509,-0.0831 -0.63868,-0.0957 -0.48717,-0.0252 -1.12999,-0.004 -1.91992,-0.004 -1.06333,0 -1.47793,0.002 -1.64843,0.004 -0.17051,0.002 -0.0451,0.004 -0.14063,-0.002 a 0.40855124,0.40855124 0 0 0 -0.002,0 c -0.0486,-0.003 -0.37823,-0.0758 -0.73047,0.043 -0.35224,0.11876 -0.69108,0.50277 -0.76367,1.07813 -0.0414,0.3285 0.14346,0.6832 0.45507,0.78906 -0.0279,0.0733 -0.0479,0.13047 -0.082,0.2168 -0.13727,0.34716 -0.31624,0.77997 -0.48437,1.16015 -0.27767,0.62783 -0.66798,1.40078 -0.6836,2.07227 -0.007,0.28175 0.029,0.51089 0.0527,0.75586 -0.23555,-0.2921 -0.49997,-0.57207 -0.85352,-0.78125 -1.3691,-0.81001 -1.76917,-0.79023 -2.76172,-0.8418 -0.2761,-0.0145 -0.5484,0.0131 -0.77929,0.0254 -0.17612,0.009 -0.27198,-0.005 -0.35156,-0.0156 -0.17171,-0.35876 -0.41392,-0.63885 -0.75782,-0.85547 -0.0766,-0.11272 -0.16863,-0.50837 -0.22461,-0.90625 -0.0493,-0.35043 -0.14714,-0.60052 -0.15039,-0.64844 -0.009,-0.13646 -0.0263,-0.27378 -0.041,-0.4043 0.15033,0.004 0.32182,-0.005 0.52539,-0.18554 0.31221,-0.27701 0.50275,-0.67027 0.5,-1.12305 -0.001,-0.22639 -0.0812,-0.49821 -0.30078,-0.67773 -0.21958,-0.17953 -0.51652,-0.22477 -0.83203,-0.18165 -0.0445,0.006 -0.16719,0.009 -0.27344,0.01 -0.009,-0.0784 -0.0203,-0.15675 -0.0117,-0.26758 0.008,-0.0998 -0.0272,-0.18768 -0.0371,-0.27734 0.16557,-0.0109 0.34691,-0.0215 0.48242,-0.0215 0.30412,0 0.58107,0.003 0.82031,-0.23632 0.11963,-0.11962 0.17883,-0.28344 0.19532,-0.42188 0.0165,-0.13844 0.004,-0.26387 -0.0156,-0.40234 -0.0217,-0.15282 -0.0478,-0.30852 -0.14258,-0.47071 -0.0947,-0.16219 -0.26909,-0.29584 -0.44726,-0.35937 -0.35635,-0.12705 -0.75882,-0.11719 -1.48633,-0.11719 a 0.40855124,0.40855124 0 0 0 -0.002,0 z m 0.40039,1.45117 c 0.005,0.008 0.0169,0.0286 0.0176,0.0312 -0.005,-0.006 -0.0132,-0.0263 -0.0176,-0.0312 z m -9.29883,1.32618 c -0.14372,0 -0.28585,-0.0183 -0.48242,0.0801 -0.19658,0.0984 -0.31977,0.34526 -0.34375,0.5293 -0.048,0.36808 0.0254,0.79104 0.10547,1.67188 0.0176,0.19369 0.0874,0.61553 0.13086,1.03515 0.0159,0.15292 0.0193,0.27257 0.0234,0.38867 h -1.64258 c -0.551012,0 -0.997558,0.0129 -1.314449,0.0137 -0.143286,3.6e-4 -0.250758,-0.004 -0.332031,-0.01 -0.0027,-0.0505 -0.0072,-0.0993 0,-0.17969 0.0204,-0.22906 0.08193,-0.52206 0.126953,-0.74609 0.130546,-0.64956 0.305999,-0.7327 0.574219,-0.98828 0.257465,-0.24534 0.440654,-0.58762 0.324219,-0.94922 -0.116436,-0.36161 -0.486989,-0.54305 -0.878907,-0.57813 -0.266429,-0.0238 -0.528776,0.0302 -0.753906,0.17188 -0.225129,0.14166 -0.41976,0.41288 -0.414062,0.73047 0.0072,0.39787 0.02193,1.05237 -0.06055,1.85156 -0.05612,0.54387 -0.141697,0.94823 -0.207032,1.24219 -0.03267,0.14697 -0.05958,0.26368 -0.07813,0.37304 -0.01854,0.10936 -0.100593,0.20382 0.05469,0.45508 0.122518,0.19825 0.26553,0.21953 0.367187,0.24414 0.101658,0.0246 0.196843,0.0334 0.298829,0.0391 0.203971,0.0114 0.434791,0.006 0.666015,0.006 0.453797,0 0.692769,0.007 0.859375,0.10157 -0.05558,-0.0316 -0.02011,-0.0151 0.01172,0.0312 0.03183,0.0463 0.07272,0.1184 0.107422,0.19336 0.02475,0.0534 0.02119,0.0525 0.03711,0.10742 -0.22253,0.0164 -0.576788,0.008 -0.978515,0.008 -0.67148,0 -0.991769,0.005 -1.277344,0.0684 -0.243182,0.0539 -0.470153,0.26885 -0.523438,0.4668 -0.05328,0.19794 -0.01467,0.34533 -0.01563,0.32617 0.009,0.1804 0.133915,0.41018 0.296875,0.51562 0.16296,0.10545 0.322596,0.13765 0.513672,0.16602 0.382152,0.0567 0.916509,0.0702 1.75586,0.10547 1.126939,0.0473 1.793949,0.0112 2.132809,0.13476 0.17309,0.0631 0.5318,0.36207 1.01758,0.71485 0.32626,0.23693 0.63449,0.43979 0.88281,0.58203 0.12417,0.0711 0.23087,0.12632 0.33399,0.16797 0.0516,0.0208 0.10132,0.0402 0.17383,0.0527 0.0725,0.0125 0.21789,0.0632 0.40039,-0.11523 0.15336,-0.15001 0.17378,-0.37257 0.14843,-0.51172 -0.0253,-0.13915 -0.0788,-0.24784 -0.14257,-0.35742 -0.12754,-0.21917 -0.31048,-0.44033 -0.53321,-0.66992 -0.44545,-0.45919 -1.03555,-0.93212 -1.60547,-1.20899 -0.2488,-0.12087 -0.54929,-0.22057 -0.79882,-0.30078 -0.095,-0.0305 -0.1675,-0.054 -0.23633,-0.0762 -0.0266,-0.10264 -0.0565,-0.21654 -0.0762,-0.32227 -0.0152,-0.0817 -0.0265,-0.11701 -0.041,-0.18164 0.28819,-0.004 0.68235,-0.003 1.13281,-0.008 a 0.40855124,0.40855124 0 0 0 0.008,0 c 0.34895,-0.009 0.59896,-0.0484 0.80859,-0.13672 0.10482,-0.0442 0.20236,-0.10194 0.28711,-0.19922 0.0847,-0.0973 0.14739,-0.2486 0.13867,-0.39258 a 0.40855124,0.40855124 0 0 0 -0.006,-0.0488 c -0.19795,-1.08451 -0.16835,-1.83232 -0.16797,-1.8418 v -0.01 c 0,0 0,-0.002 0,-0.002 0.0656,-0.99099 0.11051,-1.56081 0.0469,-1.98438 -0.032,-0.21303 -0.10575,-0.4312 -0.28711,-0.58203 -0.18136,-0.15082 -0.39407,-0.17382 -0.56836,-0.17382 z m -22.794923,0.0566 -2.445313,0.0762 a 0.40855124,0.40855124 0 0 0 -0.390625,0.35351 l -0.162109,1.19141 c -0.159293,1.16133 -0.287864,3.3779 -0.320313,3.75586 -0.0363,0.0639 -0.116355,0.1169 -0.134765,0.17773 -0.04704,0.15544 -0.05899,0.30484 -0.05859,0.45118 8.01e-4,0.29267 0.03161,0.53494 0.134766,0.76367 a 0.40855124,0.40855124 0 0 0 0.234375,0.21679 c 0.121052,0.0438 0.186848,0.0434 0.28125,0.0508 0.0944,0.007 0.200673,0.0101 0.318359,0.0117 0.235373,0.003 0.513996,-0.002 0.783203,-0.01 0.526315,-0.016 0.995757,-0.0437 1.017578,-0.0449 0.0041,0 0.0037,0 0.0078,0 0.997246,4.2e-4 1.572695,0.053 1.898437,0.14062 0.327076,0.088 0.416684,0.17339 0.613282,0.39063 0.184242,0.20358 0.338184,0.34493 0.554687,0.42382 0.108251,0.0394 0.251125,0.064 0.404297,0.008 0.153172,-0.0562 0.270114,-0.1994 0.314453,-0.32032 0.08868,-0.24183 0.03656,-0.42485 -0.03125,-0.63281 -0.06781,-0.20796 -0.179325,-0.4347 -0.339844,-0.67969 -0.315798,-0.48197 -0.754825,-0.84214 -1.318359,-1.05664 -0.563534,-0.2145 -1.241202,-0.29687 -2.095703,-0.29687 -0.352935,0 -0.654355,0.009 -0.869141,0.008 -0.04381,-1.7e-4 -0.06386,-0.003 -0.09961,-0.004 0.0044,-0.10656 0.01236,-0.23465 0.01367,-0.39454 l 0.0293,-0.40234 1.18164,0.13477 c 0.560498,0.0634 1.012978,0.0868 1.38086,0.0625 0.367881,-0.0243 0.666528,-0.0813 0.912109,-0.28516 0.199356,-0.16545 0.354663,-0.29548 0.449219,-0.53711 0.04728,-0.12081 0.06372,-0.29966 -0.0039,-0.45117 -0.06762,-0.15151 -0.18575,-0.24226 -0.292968,-0.29883 -0.214437,-0.11314 -0.437385,-0.14527 -0.740235,-0.17383 -0.302849,-0.0285 -0.680541,-0.0391 -1.148437,-0.0391 l -1.576172,-0.004 0.02344,-0.36328 c 0.02049,-0.31867 0.06642,-0.4022 0.0332,-0.37109 0.04472,-0.007 0.126803,-0.013 0.257812,-0.0137 0.297061,-0.002 1.188025,-0.007 2.068359,-0.0312 a 0.40855124,0.40855124 0 0 0 0.03516,-0.002 c 0.636501,-0.0739 0.987613,-0.0591 1.3125,-0.12695 0.162443,-0.0339 0.363392,-0.1176 0.486328,-0.29102 0.122936,-0.17341 0.140913,-0.35051 0.148437,-0.52343 0.0064,-0.14728 0.0062,-0.3488 -0.134765,-0.53907 -0.140999,-0.19026 -0.354363,-0.26699 -0.566407,-0.30468 -0.424086,-0.0754 -1.02922,-0.0549 -2.166015,-0.0195 z m 5.115234,0.20898 c -0.637522,0 -1.067565,0.0177 -1.410156,0.10156 -0.342591,0.0838 -0.641779,0.30859 -0.751953,0.59571 -0.08791,0.22907 -0.08109,0.46061 -0.01563,0.67578 0.06546,0.21517 0.198069,0.4343 0.451172,0.55273 0.138893,0.065 0.186878,0.0498 0.253906,0.0508 -0.01113,0.0757 -0.01743,0.12934 -0.0332,0.22657 -0.05956,0.36708 -0.143389,0.85875 -0.177735,1.3496 -0.04742,0.67772 -0.102533,1.39315 -0.167968,1.71875 -0.01185,0.006 -0.01012,0.002 -0.02344,0.01 -0.08625,0.0535 -0.180659,0.16383 -0.222656,0.27148 -0.05932,0.15209 -0.15211,0.32017 -0.05664,0.58594 0.04774,0.13289 0.156685,0.24257 0.25586,0.30078 0.09918,0.0582 0.190567,0.0849 0.289062,0.10743 0.39398,0.0899 0.969336,0.1077 2.070313,0.21875 1.310154,0.13215 2.191523,0.29282 2.599609,0.60937 0.173406,0.13451 0.480156,0.53956 0.53125,0.72656 a 0.40855124,0.40855124 0 0 0 0.0039,0.0117 c 8.65e-4,0.003 0.003,0.005 0.0039,0.008 a 0.40855124,0.40855124 0 0 0 0,0.002 l 0.0039,0.0117 c 0.102393,0.36345 0.24884,0.61766 0.509765,0.77343 0.0909,0.0543 0.291457,0.0805 0.421875,0.0117 0.130419,-0.0687 0.169782,-0.15376 0.195313,-0.20703 0.05106,-0.10654 0.05397,-0.1623 0.0625,-0.22656 0.01705,-0.12851 0.01942,-0.26433 0.02344,-0.4082 0.0232,-0.83524 -0.533832,-1.55585 -1.349609,-2.03321 -0.815777,-0.47735 -1.919015,-0.7539 -3.177734,-0.7539 -0.252978,0 -0.485379,-0.0121 -0.650391,-0.0332 -0.05822,-0.007 -0.02105,0.01 -0.05859,-0.004 0.0072,-0.0965 0.01821,-0.21 0.04687,-0.37305 0.06962,-0.39606 0.207043,-0.95405 0.419922,-1.59766 0.131962,-0.39896 0.219355,-0.78756 0.283203,-1.07422 0.01943,-0.0872 0.03193,-0.1389 0.04687,-0.20312 0.0069,-3e-5 0.0106,1e-5 0.01758,0 0.147427,-2e-4 0.306783,0.004 0.44336,-0.006 0.265508,-0.0199 0.51649,-0.0721 0.730469,-0.24023 0.213979,-0.16808 0.327491,-0.43347 0.365234,-0.69922 0.02146,-0.15112 0.0485,-0.29358 0,-0.48633 -0.0485,-0.19276 -0.238084,-0.38809 -0.419922,-0.45899 -0.363676,-0.14178 -0.749286,-0.11523 -1.513672,-0.11523 z m 6.320313,0 c -0.117164,0 -0.258599,0.0467 -0.353516,0.13086 -0.09492,0.0842 -0.140951,0.18329 -0.166016,0.26562 -0.05013,0.16467 -0.03934,0.29359 -0.02539,0.41993 0.02789,0.25267 0.100764,0.48711 0.15039,0.6289 a 0.40855124,0.40855124 0 0 0 0.01758,0.043 c 0.05859,0.12087 0.176756,0.2134 0.289062,0.26953 -0.03986,0.14722 -0.08839,0.31847 -0.154297,0.53125 -0.153156,0.49451 -0.36057,1.12028 -0.558594,1.70508 -0.220277,0.65052 -0.381407,1.22542 -0.472656,1.69141 -0.09125,0.46599 -0.165345,0.7789 -0.01563,1.14062 0.04834,0.11678 0.08334,0.2111 0.175781,0.32617 0.04622,0.0575 0.114436,0.13288 0.240235,0.17579 0.125798,0.0429 0.291451,0.0157 0.386719,-0.0371 0.190536,-0.10566 0.227646,-0.21326 0.292968,-0.33008 0.06532,-0.11683 0.130132,-0.25641 0.208985,-0.4336 0.219891,-0.4941 0.39151,-1.11624 0.40039,-1.58203 5.04e-4,-0.0266 0.03298,-0.10375 0.05664,-0.17968 0.183938,0.028 0.455622,0.0755 0.873047,0.13085 0.473024,0.0627 0.899962,0.11035 1.214844,0.15821 0.157441,0.0239 0.288411,0.0483 0.373046,0.0703 0.02263,0.006 4.36e-4,-0.005 0.01563,0.002 0.01603,0.0659 0.0337,0.15983 0.04883,0.27344 0.03242,0.24352 0.05273,0.55479 0.05273,0.81641 0,0.2889 0.01875,0.56884 0.05273,0.80273 0.01699,0.11695 0.03661,0.22115 0.06445,0.31836 0.02784,0.0972 0.03181,0.18214 0.169922,0.32031 0.08171,0.0817 0.171425,0.15882 0.310547,0.20703 0.139122,0.0482 0.348785,0.0327 0.486328,-0.0566 0.275088,-0.17862 0.308776,-0.40836 0.365235,-0.67382 0.112918,-0.53093 0.149263,-1.35699 0.160156,-2.6211 l 0.02148,-2.46484 0.439453,0.008 a 0.40855124,0.40855124 0 0 0 0.04687,-0.002 c 0.350938,-0.0338 0.627048,-0.0743 0.876954,-0.24414 0.249906,-0.16988 0.375958,-0.46795 0.416015,-0.75 0.02147,-0.15123 0.07522,-0.3302 -0.03906,-0.57227 -0.114286,-0.24207 -0.371851,-0.35649 -0.613282,-0.4043 -0.482861,-0.0956 -1.232666,-0.084 -2.761718,-0.084 z m 34.175786,0.72852 c -0.007,0.0209 0.001,0.0433 -0.004,0.0645 -8.2e-4,0.006 -0.0111,0.0114 -0.0117,0.0176 z m -51.558599,0.88476 c 0.11606,-0.001 0.205016,-0.002 0.28711,0 0.01334,0.11161 0.02611,0.25014 0.03711,0.45313 0.02617,0.48301 0.05128,1.18142 0.132812,2.01953 0.0013,0.30733 0.01893,0.57247 0.03516,0.83203 -0.272026,-0.43965 -0.750462,-0.73898 -1.345703,-0.99805 -0.649835,-0.28282 -1.413433,-0.48386 -2.125,-0.48047 -0.103179,5e-4 -0.196856,-0.01 -0.285157,-0.0195 9.3e-5,-0.1014 1.65e-4,-0.20898 0.01367,-0.34375 0.0353,-0.35221 0.145946,-0.76278 0.283203,-0.94922 0.174669,-0.23724 0.227724,-0.30617 0.449219,-0.38086 0.221495,-0.0747 0.657052,-0.12306 1.457031,-0.12109 0.387921,9.7e-4 0.766845,-0.008 1.060547,-0.0117 z m -3.978515,0.0215 c 0.186166,-0.0117 -0.03677,-0.0434 0,0 z m 52.628904,0.29296 c 0.0132,0.0886 0.0266,0.18521 0.0391,0.3125 0.0315,0.32313 0.0547,0.7365 0.0547,1.09961 0,0.1053 -0.002,0.19111 -0.004,0.28516 -0.2049,-0.0621 -0.46844,-0.1476 -0.83399,-0.26172 -0.33758,-0.10538 -0.67631,-0.16413 -0.9375,-0.20312 -0.0104,-0.002 -0.0152,-0.002 -0.0254,-0.004 0.0661,-0.17655 0.1487,-0.38109 0.23047,-0.56055 0.0723,-0.15876 0.17819,-0.37053 0.26758,-0.53711 0.0269,-0.0502 0.0462,-0.0823 0.0684,-0.12109 0.0406,-0.001 0.0763,-0.003 0.125,-0.004 0.16112,-0.003 0.34728,-0.002 0.47265,-0.002 0.19683,0 0.39695,-0.006 0.54297,-0.004 z m 13.76758,0.0156 c 0.15997,0.004 0.36169,0.0195 0.54297,0.0195 0.19623,0 0.39744,-0.006 0.55273,-0.004 0.007,0.093 0.0135,0.18951 0.0195,0.31446 0.0158,0.32748 0.0274,0.73283 0.0274,1.0664 0,0.10939 -6e-5,0.1684 0.002,0.25782 -0.607,-0.12383 -1.1984,-0.24428 -1.55859,-0.33203 -0.14868,-0.0362 -0.23074,-0.0617 -0.32813,-0.0899 0.0331,-0.11603 0.0435,-0.18697 0.10352,-0.33789 0.10759,-0.27044 0.24273,-0.55941 0.3457,-0.75976 0.004,-0.007 0.0376,-0.0534 0.0781,-0.0899 0.0164,-0.0147 0.0331,-0.0285 0.0488,-0.041 0.0366,-0.003 0.0937,-0.006 0.16602,-0.004 z m -42.257813,0.082 c 0.0022,0.0318 0.0066,0.069 0.0078,0.0918 0.01045,0.19797 0.01782,0.28246 0.109375,0.74023 a 0.40855124,0.40855124 0 0 0 0.02539,0.0664 c 0.0026,0.0256 0.0049,0.0671 0.0078,0.11719 0.006,0.10514 0.01159,0.24627 0.01367,0.38671 8.7e-4,0.0587 -0.0017,0.10262 -0.002,0.15821 -0.130381,-0.0272 -0.26482,-0.0564 -0.455078,-0.10547 -0.34889,-0.09 -0.603306,-0.20821 -1.023438,-0.2832 -0.12814,-0.0229 -0.28737,-0.0417 -0.4375,-0.0605 0.05878,-0.15959 0.134889,-0.34797 0.253906,-0.54492 a 0.40855124,0.40855124 0 0 0 0.0078,-0.0117 c 0.08956,-0.16057 0.12151,-0.29822 0.166016,-0.41016 0.04451,-0.11194 0.118721,-0.16496 0.03906,-0.11523 -0.02586,0.0161 0.06818,-0.0199 0.214844,-0.0254 0.146665,-0.006 0.339918,0.002 0.544922,0.002 0.19608,0 0.382906,-0.006 0.527343,-0.006 z m 17.076173,2.91211 c 0.34853,-0.0189 0.74275,0.1464 0.86719,0.31055 0.22322,0.29443 0.27723,0.44602 0.27734,0.4707 1.1e-4,0.0247 -0.024,0.10599 -0.25195,0.33398 -0.13914,0.13915 -0.53725,0.29688 -0.59766,0.29688 -0.12069,0 -0.41283,-0.1459 -0.61914,-0.38477 -0.20631,-0.23886 -0.29491,-0.54007 -0.27734,-0.63476 0.0248,-0.13355 0.0772,-0.20112 0.17578,-0.26758 0.0985,-0.0665 0.25113,-0.11552 0.42578,-0.125 z" /><path
       style="display:inline;fill:#000000;stroke:none;stroke-width:1;stroke-dasharray:none;stroke-opacity:1"
       d="m 88.756191,153.17651 c -0.09391,-0.34372 -0.425067,-0.74631 -0.676614,-0.94144 -0.552916,-0.42889 -1.490166,-0.56149 -2.807841,-0.6944 -2.217087,-0.22362 -2.429436,-0.12022 -2.219454,-0.65854 0.05775,-0.14804 0.206914,-0.0409 0.256487,-0.25104 0.09103,-0.38587 0.135871,-1.15919 0.185363,-1.86651 0.06489,-0.9274 0.321473,-1.92319 0.223364,-1.95656 -0.08976,-0.0305 -0.40993,-0.027 -0.50164,-0.0699 -0.226338,-0.10591 -0.322866,-0.46509 -0.227566,-0.71343 0.129701,-0.338 0.527327,-0.43514 1.781183,-0.43514 1.522654,0 1.609411,0.0338 1.529658,0.59531 -0.05805,0.40873 -0.268858,0.55537 -0.723004,0.58946 -0.186212,0.0139 -0.670609,-0.0104 -0.731416,0.0248 -0.07606,0.044 -0.167958,0.78731 -0.416065,1.53742 -0.437184,1.32175 -0.565406,2.29755 -0.466132,2.39042 0.118227,0.1106 0.568417,0.15427 1.096893,0.15427 2.395474,0 4.153309,1.07335 4.117354,2.36776 -0.0079,0.28299 -0.01884,0.52866 -0.08504,0.48914 -0.107371,-0.0641 -0.250011,-0.24778 -0.332429,-0.55024 z m 11.786539,-3.24708 c 0.0128,0.077 0.0798,0.2256 0.15338,0.62107 0.0284,0.15264 0.0778,0.42487 0.13903,0.55919 0.0164,0.036 0.78243,0.23201 1.19615,0.433 0.9997,0.48566 2.2964,1.82244 2.02513,2.08778 -0.063,0.0616 -0.6322,-0.26384 -1.26485,-0.72328 l -1.8e-4,3e-5 c -0.46352,-0.33661 -0.80387,-0.6569 -1.11719,-0.77115 -0.48293,-0.1761 -1.15202,-0.11114 -2.25625,-0.15748 -1.682683,-0.0706 -2.159852,-0.0662 -2.176386,-0.39871 -0.0049,-0.0986 -0.06465,-0.31277 0.219361,-0.37577 0.219654,-0.0487 0.521635,-0.0582 1.189075,-0.0582 0.800365,0 1.44936,0.048 1.45521,-0.21167 0.005,-0.20726 -0.241996,-0.78468 -0.431402,-0.89222 -0.287147,-0.16307 -0.612639,-0.15288 -1.06111,-0.15288 -0.47163,0 -0.913939,0.0162 -0.982909,-0.0954 -0.06897,-0.1116 0.172428,-0.68464 0.289133,-1.81559 0.08534,-0.82696 0.06817,-1.50515 0.06105,-1.90059 -0.0058,-0.32333 0.361142,-0.52024 0.722731,-0.48789 0.606632,0.0543 0.693798,0.46216 0.31111,0.82682 -0.245529,0.23396 -0.545043,0.46525 -0.693284,1.20285 -0.08763,0.43604 -0.266197,1.21729 -0.01473,1.36488 0.164441,0.0965 0.844419,0.045 1.933561,0.045 h 1.98622 c 0.20463,0 -0.0669,-1.61237 -0.0903,-1.86962 -0.16099,-1.77091 -0.22903,-1.83454 0.31317,-1.83454 0.53782,0 0.53409,0.31338 0.4018,2.3151 0,0 -0.0334,0.81154 0.17336,1.94429 0.008,0.13213 -0.19922,0.27728 -0.83743,0.29445 -0.92155,0.0101 -1.65289,-0.007 -1.64345,0.0505 z m 17.48137,2.67187 c 0,-0.37424 -1.94043,-1.19518 -2.23219,-1.24753 -1.16305,-0.20867 -2.07272,-0.29433 -2.47099,-0.15912 -0.13548,0.046 -0.21423,0.0875 -0.21874,0.21852 -0.0162,0.46972 -1.14613,1.32027 -1.7311,1.32027 -0.9138,0 -1.76384,-0.60615 -2.04112,-1.34005 -0.35657,-0.94377 -0.0961,-2.02333 1.20652,-2.50548 0.38019,-0.14073 0.66883,-0.0878 0.7568,-0.1369 0.0551,-0.0308 0.0408,-0.63662 -0.0888,-1.08848 -0.11075,-0.38614 -0.16028,-1.14039 -0.2107,-1.17094 -0.0857,-0.0519 -0.70465,-0.10007 -1.0335,-0.1041 -0.1819,-0.002 -0.33073,-0.30171 -0.33073,-0.66551 0,-0.52916 0.50039,-0.66146 0.89536,-0.66146 0.20302,0 0.39804,0.001 0.41831,-0.0374 0.0227,-0.0433 0.032,-0.31724 0.0267,-0.66739 -0.002,-0.14565 -0.1119,-0.28252 -0.1638,-0.34649 -0.14462,-0.1783 -0.26224,-0.15297 -0.44453,-0.1723 -0.44052,-0.0467 -0.81897,-0.0746 -0.83139,-0.286 -0.007,-0.12612 -0.0411,-0.31122 0.0529,-0.53703 0.16673,-0.40049 0.5075,-0.45863 1.76624,-0.4669 1.44486,0 1.5951,0.0535 1.67205,0.59531 0.0689,0.48485 -0.0416,0.59532 -0.59531,0.59532 -0.37822,0 -0.99188,0.0514 -1.00632,0.0782 -0.0159,0.0295 0.0478,0.0366 0.0976,0.17394 0.0374,0.10294 0.0635,0.30799 0.0546,0.42387 -0.0292,0.37897 0.0576,0.65603 0.0945,0.68077 0.0537,0.0364 0.46727,0.0394 0.65418,0.0139 0.98736,-0.13494 0.6952,0.92831 0.30693,1.2728 -0.162,0.14373 -0.64185,0.0484 -0.67424,0.083 -0.0497,0.0532 0.0299,0.52043 0.0517,0.83775 0.0122,0.17978 0.11564,0.39493 0.15552,0.67815 0.0564,0.40086 0.11521,0.84929 0.3031,1.10542 0.47798,0.26341 0.66241,0.46565 0.83437,0.98062 0.31286,0.11358 0.89461,-0.006 1.35859,0.0184 1.0124,0.0526 1.22893,-0.0111 2.57331,0.78428 0.48767,0.28853 0.83826,0.75573 1.14341,1.21864 0.83221,1.26247 0.60073,1.70146 -0.34923,0.51401 z m -5.89993,-1.0774 c 0.50127,-0.50128 0.48443,-0.71987 0.0134,-1.34116 -0.48916,-0.64529 -2.02157,-0.69815 -2.19841,0.25526 -0.11102,0.59859 0.66874,1.50167 1.29991,1.50167 0.25809,0 0.65636,-0.1871 0.88503,-0.41577 z m 19.87618,1.40796 c -0.0562,-0.1819 -0.17675,-1.34276 -0.26792,-2.57969 -0.12864,-1.74542 -0.20726,-3.24743 -0.26676,-3.4533 -0.038,-0.13158 -0.58891,-0.069 -1.07472,-0.069 h -0.87705 c -0.12278,0 0.12444,1.33172 0.19658,2.48729 0.0263,0.42207 0.0642,2.42097 -0.32223,2.30494 -0.20417,-0.0613 -0.33818,-0.61778 -0.38814,-1.5564 -0.0657,-1.23418 -0.18268,-2.32785 -0.44263,-3.10239 -0.0605,-0.1803 -0.33907,-0.13344 -0.55901,-0.13344 -0.18039,0 -0.58898,-0.0444 -0.63306,0.0761 -0.0366,0.1 -0.0471,0.66923 -0.10404,1.02508 -0.24724,1.54611 -1.75684,3.22645 -1.75684,1.95553 0,-0.0936 -0.0779,-0.49816 0.0396,-0.52435 0.25845,-0.0576 0.3049,-0.15631 0.48959,-0.27164 0.36503,-0.22795 0.65318,-0.55087 0.66145,-1.27081 0,-0.30475 -0.007,-0.89969 -0.0389,-0.9668 -0.0218,-0.0457 -0.26211,-0.0284 -0.29184,-0.0272 -0.57779,0.0226 -0.83441,-0.39065 -0.70825,-0.79432 0.0491,-0.50343 0.64961,-0.44187 3.75274,-0.44187 h 3.58319 l -0.17191,2.4219 c -0.0946,1.33204 -0.17191,3.05845 -0.17191,3.83646 0,0.65479 -0.0968,1.31771 -0.14407,1.36484 -0.0511,0.0511 -0.19211,0.11593 -0.38532,0.0336 -0.0717,-0.0306 -0.0804,-0.19108 -0.11854,-0.31458 z M 73.912414,151.6443 c -0.987156,-1.07994 -1.11828,-1.30209 -2.78835,-1.40851 -0.87524,-0.0558 -1.68096,-4.1e-4 -1.838888,-0.0709 -0.08638,-0.0386 -0.154701,-0.67446 0.261348,-2.1056 0.304146,-1.04623 0.606887,-1.75061 0.155175,-1.62368 -0.329646,0.0926 -0.288852,-0.31409 -0.288852,-0.5803 -0.0049,-0.24026 0.02344,-0.37618 0.06473,-0.45832 0.0282,-0.0561 0.624088,-0.2407 1.588918,-0.24724 l 1.667653,-0.0113 -0.493223,-0.93782 c -0.257649,-0.4899 -1.115109,-0.47956 -1.604548,-0.47571 -0.743512,0.006 -0.82205,-0.0877 -0.750125,-0.59416 0.08053,-0.567 -0.05523,-0.76782 2.557805,-0.66432 2.203133,0.0873 2.395638,-0.15057 2.392751,0.60968 -0.0027,0.72338 -0.283872,0.57163 -0.967088,0.5893 -0.440249,0.0114 -0.905561,0.0665 -0.912444,0.0861 -0.01289,0.0367 0.07516,0.21246 0.127986,0.60521 0.07511,0.33835 0.106109,0.66191 0.197109,0.76295 0.09214,0.10231 0.560433,0.0571 0.990767,0.0616 l 0.737131,0.008 c 0.211236,-0.005 0.361126,0.13594 0.356592,0.41281 l 0.007,3.24935 c 0.0031,1.42501 -0.05248,3.57295 -0.229311,3.71636 -0.0506,0.046 -0.246133,0.0292 -0.293392,-0.009 -0.22351,-0.17966 -0.932149,-0.85671 -0.938719,-0.91453 z m 0.657512,-2.41661 c -0.160396,-1.6488 -0.09837,-2.7516 -0.272487,-2.81639 -0.146291,-0.0544 -0.888183,-0.0106 -1.648082,-0.0125 -1.627748,-0.004 -1.863693,0.16032 -2.236568,0.66677 -0.441093,0.59915 -0.404243,1.8439 -0.34969,1.8752 0.06282,0.036 0.355179,0.09 0.667315,0.0885 1.259077,-0.006 2.901094,0.74394 3.197382,1.35474 0.286371,0.59036 0.387809,0.59691 0.698936,0.53994 0.05818,-0.0107 -0.05681,-0.85629 -0.05681,-1.69624 z m 7.164422,2.99686 c -0.432043,-0.4774 -0.7879,-0.66522 -2.822815,-0.66522 0,0 -1.990766,0.11176 -2.261038,0.0141 -0.09977,-0.22122 -0.193038,-0.98827 0.08773,-1.1376 0.03497,-0.38495 0.166295,-2.65329 0.321915,-3.78784 l 0.163311,-1.19062 2.444717,-0.0761 c 2.26899,-0.0706 2.465417,-0.0388 2.444717,0.43705 -0.02481,0.57015 -0.272872,0.4006 -1.586239,0.55303 -0.874478,0.0241 -1.762198,0.0299 -2.058201,0.0314 -0.601335,0.003 -0.65131,0.0674 -0.696258,0.76641 l -0.05127,0.79747 2.01077,0.004 c 1.844533,0 2.191524,0.18266 1.47563,0.7768 -0.255928,0.2124 -0.891246,0.25419 -1.984375,0.13052 l -1.607921,-0.18192 -0.05846,0.82793 c 0,0.37747 -0.06258,0.71348 0.04423,0.78352 0.125877,0.0825 0.628865,0.0444 1.319925,0.0444 1.654791,0 2.520243,0.32982 3.07097,1.17034 0.57797,0.88209 0.384217,1.41086 -0.257249,0.70204 z m 12.983116,0.32529 c -0.09306,-0.0931 -0.169196,-0.61102 -0.169196,-1.15104 0,-0.56508 -0.08638,-1.29457 -0.194881,-1.39154 -0.161345,-0.14421 -0.926409,-0.20948 -1.862254,-0.33362 -0.873215,-0.11584 -1.1877,-0.20806 -1.224875,-0.13166 -0.04651,0.0956 -0.165574,0.37025 -0.169507,0.57766 -0.0066,0.34617 -0.170893,0.98658 -0.365178,1.42315 -0.308146,0.69241 -0.378839,0.73191 -0.553736,0.30937 -0.124091,-0.2998 0.06552,-1.26999 0.497595,-2.54599 0.397149,-1.17286 0.833571,-2.51158 0.804081,-2.66931 -0.01991,-0.1065 -0.294782,0.0729 -0.400279,-0.14474 -0.08185,-0.23387 -0.26471,-0.90246 0.01008,-0.90246 h 3.047411 c 3.057445,0 3.09318,0.007 3.009636,0.59531 -0.0648,0.45628 -0.268845,0.58161 -0.927908,0.64515 l -0.851627,-0.0163 -0.02481,2.87804 c -0.02165,2.51241 -0.173965,3.30857 -0.624554,2.85798 z m -0.332727,-4.59148 c -0.09095,-0.45475 -0.09051,-0.48216 -0.101052,-0.68197 -0.0064,-0.12121 -0.02589,-0.42866 -0.07527,-0.44888 -0.110762,-0.0453 -0.485559,-0.0224 -0.869474,-0.0224 -0.3859,0 -0.783403,-0.0341 -0.975876,0.086 -0.171958,0.10734 -0.247989,0.49727 -0.345042,0.67128 -0.316861,0.52436 -0.478973,1.07442 -0.359955,1.10249 0.139267,0.0329 0.590135,0.0744 0.820218,0.11551 0.371451,0.0663 0.612532,0.17966 0.994112,0.27807 0.516011,0.13309 0.86977,0.20465 0.932471,0.15505 0.06497,-0.0514 0.02911,-1.16746 -0.0012,-1.22151 z m 28.670553,3.56143 c -0.0752,-0.6675 -0.23955,-1.315 -0.36514,-1.4389 -0.12558,-0.12389 -0.83436,-0.30494 -1.57505,-0.40233 l -1.3467,-0.17707 c 0,0 -0.33548,0.62859 -0.44657,1.16062 -0.14231,0.68159 -0.17866,1.47883 -0.30527,1.47883 -0.26399,0 -0.38828,-0.72885 -0.36834,-1.5873 0.0111,-0.47725 0.36987,-1.28826 0.64768,-1.91643 0.34169,-0.77263 0.72736,-1.74822 0.73055,-1.8485 0.003,-0.10408 -0.29273,-0.0436 -0.40421,-0.0799 -0.12,-0.0391 -0.20459,-0.16777 -0.18109,-0.35406 0.11937,-0.94608 0.82697,-0.77786 1.06325,-0.76259 0.16066,0.0104 -0.30827,-0.002 1.81681,-0.002 1.59304,0 2.58514,-0.0782 2.65414,0.26458 0.0581,0.28848 -0.0706,0.31914 -0.25116,0.46283 -0.0993,0.079 -0.0542,0.1857 -0.16221,0.33915 -0.0517,0.0735 -0.76476,0.0568 -0.80428,0.13071 -0.0509,0.0952 0.0383,1.1586 -0.0531,3.21384 -0.12797,2.87748 -0.41937,3.55917 -0.64932,1.51906 z m -0.1966,-2.99806 c 0,-0.76082 -0.0962,-1.68903 -0.16558,-1.76592 -0.0732,-0.0812 -0.50575,-0.0499 -0.8786,-0.0499 -0.2486,0 -0.75498,-0.003 -0.82758,0.0224 -0.046,0.016 -0.32197,0.53983 -0.47693,0.87993 -0.1961,0.4304 -0.42722,1.01812 -0.35792,1.06311 0.0566,0.0368 0.7318,0.0744 1.3392,0.26402 0.80668,0.25183 1.24983,0.41272 1.3104,0.35422 0.0543,-0.0524 0.057,-0.41402 0.057,-0.76786 z m 14.94899,2.88907 c -0.0781,-0.56764 -0.0651,-1.22745 -0.16287,-1.45862 -0.55368,-0.10812 -1.15501,-0.19486 -1.73709,-0.27528 l -1.34037,-0.1778 c -0.15958,-0.0212 -0.35955,0.89068 -0.4414,1.33501 -0.13859,0.75236 -0.31473,1.3701 -0.44574,1.3701 -0.38784,0 -0.27171,-1.79114 0.18495,-2.85277 0.61083,-1.42002 1.0323,-2.43418 0.96453,-2.57137 -0.0183,-0.0371 -0.43549,-0.0772 -0.47537,-0.12056 -0.12566,-0.13806 -0.04,-0.4111 -0.0297,-0.65516 0.0669,-0.40935 0.89451,-0.40297 3.21014,-0.41466 1.67803,-0.008 2.98571,-0.0556 2.99727,0.0806 0.034,0.40122 -0.23352,0.26703 -0.2336,0.45978 -3e-5,0.0824 0.0334,0.29534 -0.0207,0.40509 -0.0484,0.0981 -0.20312,0.17191 -0.34256,0.17728 -0.0904,0.003 -0.45333,0.0348 -0.6816,0.0348 h -0.78444 v 3.07577 c 0,3.03317 -0.3478,3.86809 -0.66142,1.5878 z m -0.13233,-2.88907 c 0,-0.68432 -0.0428,-1.63664 -0.0856,-1.7277 -0.0412,-0.0876 -0.52651,-0.0585 -0.92113,-0.0585 -0.31107,0 -0.81185,-0.0589 -0.90318,0.0253 -0.0275,0.0253 -0.21378,0.15116 -0.29647,0.31204 -0.21945,0.427 -0.55341,1.18819 -0.57724,1.52293 -0.007,0.0983 1.02658,0.33695 2.71523,0.67318 0.10915,0.0217 0.0683,-0.32256 0.0683,-0.74722 z"
       id="path1" /></g><metadata
     id="metadata1"><rdf:RDF><cc:Work
         rdf:about=""><dc:title>Delay Lama Logo</dc:title></cc:Work></rdf:RDF></metadata></svg>
